<svg width="543" height="486" viewBox="0 0 543 486" fill="none" xmlns="http://www.w3.org/2000/svg">
<path d="M269.14 135.506C269.9 136.761 270.723 138.098 271.607 139.509C277.86 149.478 287.225 163.168 299.712 178.106C303.458 182.588 307.941 185.355 312.914 186.518C317.802 187.66 322.807 187.172 327.599 185.777C337.065 183.021 346.675 176.438 355.041 169.338C359.901 165.215 364.481 160.792 368.538 156.593C366.537 164.095 364.55 173.086 363.064 183.265C362.327 188.31 363.465 192.828 366.331 196.527C369.068 200.06 373.043 202.413 377.271 204.022C385.663 207.215 396.829 208.132 407.491 208.106C412.962 208.094 418.454 207.829 423.6 207.444C418.658 210.697 413.678 214.524 409.686 218.788C405.202 223.577 401.44 229.478 401.134 236.201C400.798 243.571 405.87 250.399 411.437 255.83C417.272 261.523 424.978 266.952 432.475 271.602C434.77 273.025 437.065 274.387 439.307 275.674C433.396 275.191 426.878 274.721 420.215 274.359C408.584 273.726 396.398 273.408 386.199 273.911C381.105 274.161 376.386 274.622 372.423 275.387C368.627 276.12 364.871 277.247 362.246 279.229C359.461 281.331 357.79 284.445 356.749 287.607C355.694 290.811 355.139 294.511 354.893 298.352C354.4 306.039 355.102 315.068 356.198 323.531C356.474 325.654 356.775 327.755 357.092 329.805C355.196 327.097 353.156 324.288 350.997 321.466C344.953 313.569 337.873 305.416 330.343 299.01C322.915 292.691 314.471 287.573 305.746 286.724C296.262 285.802 287.88 291.339 281.126 298.303C274.23 305.414 268.073 314.986 262.974 324.363C258.89 331.873 255.4 339.418 252.681 345.766C252.107 343.248 251.446 340.571 250.685 337.814C248.775 330.894 246.219 323.35 242.845 316.473C239.499 309.653 235.177 303.13 229.567 298.62C222.43 292.881 213.197 294.589 205.418 297.901C197.321 301.349 188.733 307.368 181.043 313.623C175.828 317.864 170.905 322.315 166.673 326.348C167.153 324.141 167.599 321.842 167.97 319.507C169.055 312.68 169.588 305.154 168.367 298.613C167.142 292.046 163.9 285.452 156.636 282.546C150.19 279.968 141.785 280.67 133.746 282.391C128.618 283.489 123.228 285.098 117.926 286.945C124.068 281.394 129.852 275.415 133.718 269.679C135.994 266.302 137.836 262.678 138.506 259.026C139.207 255.211 138.638 251.166 135.821 247.714C129.432 239.883 119.408 229.927 110.623 221.602C115.679 223.02 121.13 224.217 126.523 224.795C136.222 225.836 146.944 225.016 154.443 218.466C162.22 211.672 164.999 200.151 162.083 183.566C159.102 166.614 157.292 155.247 156.229 147.695C156.642 148.142 157.066 148.6 157.501 149.067C163.87 155.894 172.693 164.735 182.402 172.632C192.021 180.456 202.921 187.697 213.422 190.873C218.725 192.476 224.178 193.121 229.414 192.071C234.739 191.002 239.518 188.242 243.449 183.591C256.922 167.646 263.958 152.233 267.624 140.727C268.212 138.881 268.712 137.136 269.14 135.506Z" stroke="black" stroke-width="10"/>
<path d="M269.879 118.511C269.879 118.511 281.523 141.579 304.831 169.292C328.14 197.005 378.703 130.696 378.703 130.696C378.703 130.696 370.137 149.142 365.907 177.899C361.677 206.656 443.587 192.09 443.587 192.09C443.587 192.09 402.864 208.371 401.995 227.248C401.127 246.126 457.383 271.093 457.383 271.093C457.383 271.093 376.206 261.535 363.344 271.184C350.481 280.834 365.09 338.785 365.09 338.785C365.09 338.785 333.777 281.769 306.582 279.141C279.386 276.513 254.99 347.233 254.99 347.233C254.99 347.233 249.951 303.738 231.868 289.289C213.785 274.841 165.436 328.444 165.436 328.444C165.436 328.444 182.782 282.334 164.053 274.89C145.323 267.445 93.604 295.59 93.604 295.59C93.604 295.59 154.975 256.022 142.371 240.671C129.767 225.319 101.09 200.325 101.09 200.325C101.09 200.325 176.742 237.565 166.228 178.093C155.714 118.622 160.333 130.909 160.333 130.909C160.333 130.909 219.648 203.304 244.295 174.328C268.942 145.352 269.879 118.511 269.879 118.511Z" fill="white"/>
</svg>
