<svg width="469" height="249" viewBox="0 0 469 249" fill="none" xmlns="http://www.w3.org/2000/svg">
<mask id="mask0_383_89" style="mask-type:luminance" maskUnits="userSpaceOnUse" x="0" y="0" width="469" height="249">
<path d="M442.693 0.560841L467.503 189.639L25.371 247.654L0.560801 58.5759L442.693 0.560841Z" fill="white" stroke="white"/>
</mask>
<g mask="url(#mask0_383_89)">
<mask id="mask1_383_89" style="mask-type:luminance" maskUnits="userSpaceOnUse" x="-835" y="-233" width="1873" height="779">
<path d="M1036.64 60.3754L155.737 544.544L-833.103 251.838L47.8302 -232.345L1036.64 60.3754Z" fill="white" stroke="white"/>
</mask>
<g mask="url(#mask1_383_89)">
<mask id="mask2_383_89" style="mask-type:luminance" maskUnits="userSpaceOnUse" x="-831" y="-232" width="1869" height="778">
<path d="M1036.65 60.3757L155.737 544.545L-829.52 252.9L51.4132 -231.282L1036.65 60.3757Z" fill="white" stroke="white"/>
</mask>
<g mask="url(#mask2_383_89)">
<mask id="mask3_383_89" style="mask-type:luminance" maskUnits="userSpaceOnUse" x="-835" y="-233" width="1873" height="779">
<path d="M1036.67 60.3721L155.735 544.544L-833.104 251.838L47.8288 -232.345L1036.67 60.3721Z" fill="white" stroke="white"/>
</mask>
<g mask="url(#mask3_383_89)">
<path d="M296.779 91.18L393.618 86.9559L304.24 99.9754L404.022 132.799L281.86 112.271C281.86 112.271 334.547 143.48 323.365 140.175C312.181 136.86 269.5 124.225 269.5 124.225C269.5 124.225 309.932 188.818 304.847 187.318C299.762 185.818 232.065 135.343 232.065 135.343L204.202 157.53L208.114 136.472L136.146 176.027L185.78 130.69L67.6297 148.35L171.24 120.623L118.008 113.095L173.889 104.558L100.694 82.8909L196.615 89.492L208.667 52.7643L216.944 76.5903L251.243 51.3808L248.15 80.0809L279.223 62.1355L280.453 85.529L343.149 58.0271L296.779 91.18Z" fill="white" stroke="black" stroke-miterlimit="10"/>
</g>
</g>
</g>
</g>
</svg>
